# xmcd
#
# Track frame offsets: 
#        150
#        33160
#        60113
#        87810
#        111083
#        123693
#        146725
#        173598
#        203750
#        226418
#        244315
#        251713
#
# Disc length: 3642 seconds
#
# Revision: 0
# Processed by: cddbd v1.5.2PL0 Copyright (c) Steve Scherf et al.
# Submitted via: ExactAudioCopy v0.99pb4
#
DISCID=9d0e380c
DTITLE=Alexis Corner - meets Jack Daniels
DYEAR=1900
DGENRE=Blues
TTITLE0=Fly United
TTITLE1=Vickburg Blues
TTITLE2=You Got The Power
TTITLE3=Robert Johnson
TTITLE4=I Gotcha Number
TTITLE5=New Worried Blues
TTITLE6=Rosie
TTITLE7=Mary Open The Door
TTITLE8=Funky
TTITLE9=Will The Circle Be Unbroken
TTITLE10=Polly, Put The Kettle On
TTITLE11=Clapping Song
EXTD=
EXTT0=
EXTT1=
EXTT2=
EXTT3=
EXTT4=
EXTT5=
EXTT6=
EXTT7=
EXTT8=
EXTT9=
EXTT10=
EXTT11=
PLAYORDER=
